<svg width="27" height="24" viewBox="0 0 27 24" fill="none" xmlns="http://www.w3.org/2000/svg">
<g filter="url(#filter0_d_517_22650)">
<path d="M12 22H18C23 22 25 20 25 15V9C25 4 23 2 18 2H12C7 2 5 4 5 9V15C5 20 7 22 12 22Z" stroke="#BDBBC2" stroke-width="1.5" stroke-linecap="round" stroke-linejoin="round"/>
<path d="M15 15.5C16.933 15.5 18.5 13.933 18.5 12C18.5 10.067 16.933 8.5 15 8.5C13.067 8.5 11.5 10.067 11.5 12C11.5 13.933 13.067 15.5 15 15.5Z" stroke="#BDBBC2" stroke-width="1.5" stroke-linecap="round" stroke-linejoin="round"/>
<path d="M20.6361 7H20.6477" stroke="#BDBBC2" stroke-width="2" stroke-linecap="round" stroke-linejoin="round"/>
</g>
<defs>
<filter id="filter0_d_517_22650" x="0.25" y="1.25" width="29.5" height="29.5" filterUnits="userSpaceOnUse" color-interpolation-filters="sRGB">
<feFlood flood-opacity="0" result="BackgroundImageFix"/>
<feColorMatrix in="SourceAlpha" type="matrix" values="0 0 0 0 0 0 0 0 0 0 0 0 0 0 0 0 0 0 127 0" result="hardAlpha"/>
<feOffset dy="4"/>
<feGaussianBlur stdDeviation="2"/>
<feComposite in2="hardAlpha" operator="out"/>
<feColorMatrix type="matrix" values="0 0 0 0 0 0 0 0 0 0 0 0 0 0 0 0 0 0 0.25 0"/>
<feBlend mode="normal" in2="BackgroundImageFix" result="effect1_dropShadow_517_22650"/>
<feBlend mode="normal" in="SourceGraphic" in2="effect1_dropShadow_517_22650" result="shape"/>
</filter>
</defs>
</svg>
