<svg width="48" height="24" viewBox="0 0 48 24" fill="none" xmlns="http://www.w3.org/2000/svg">
<path d="M24 22C29.5228 22 34 17.5228 34 12C34 6.47715 29.5228 2 24 2C18.4772 2 14 6.47715 14 12C14 17.5228 18.4772 22 24 22Z" stroke="#FFF8E8" stroke-width="1.5" stroke-linecap="round" stroke-linejoin="round"/>
<path d="M20.0001 3H21.0001C19.0501 8.84 19.0501 15.16 21.0001 21H20.0001" stroke="#FFF8E8" stroke-width="1.5" stroke-linecap="round" stroke-linejoin="round"/>
<path d="M27 3C28.95 8.84 28.95 15.16 27 21" stroke="#FFF8E8" stroke-width="1.5" stroke-linecap="round" stroke-linejoin="round"/>
<path d="M15 16V15C20.84 16.95 27.16 16.95 33 15V16" stroke="#FFF8E8" stroke-width="1.5" stroke-linecap="round" stroke-linejoin="round"/>
<path d="M15 8.99998C20.84 7.04998 27.16 7.04998 33 8.99998" stroke="#FFF8E8" stroke-width="1.5" stroke-linecap="round" stroke-linejoin="round"/>
</svg>
