<svg width="48" height="24" viewBox="0 0 48 24" fill="none" xmlns="http://www.w3.org/2000/svg">
<path d="M24 6.43994V9.76994" stroke="#FFF8E8" stroke-width="1.5" stroke-miterlimit="10" stroke-linecap="round"/>
<path d="M24.0209 2C20.3409 2 17.3609 4.98 17.3609 8.66V10.76C17.3609 11.44 17.0809 12.46 16.7309 13.04L15.4609 15.16C14.6809 16.47 15.2209 17.93 16.6609 18.41C21.4409 20 26.6109 20 31.3909 18.41C32.7409 17.96 33.3209 16.38 32.5909 15.16L31.3209 13.04C30.9709 12.46 30.6909 11.43 30.6909 10.76V8.66C30.6809 5 27.6809 2 24.0209 2Z" stroke="#FFF8E8" stroke-width="1.5" stroke-miterlimit="10" stroke-linecap="round"/>
<path d="M27.3299 18.8199C27.3299 20.6499 25.8299 22.1499 23.9999 22.1499C23.0899 22.1499 22.2499 21.7699 21.6499 21.1699C21.0499 20.5699 20.6699 19.7299 20.6699 18.8199" stroke="#FFF8E8" stroke-width="1.5" stroke-miterlimit="10"/>
</svg>
